<svg width="81" height="34" viewBox="0 0 81 34" fill="none" xmlns="http://www.w3.org/2000/svg">
<path d="M24.525 33L20.655 23.055H7.92L4.095 33H0L12.555 0.735H16.2L28.71 33H24.525ZM19.44 19.455L15.84 9.735C15.75 9.495 15.6 9.06 15.39 8.43C15.18 7.8 14.97 7.155 14.76 6.495C14.58 5.805 14.43 5.28 14.31 4.92C14.1 5.85 13.86 6.765 13.59 7.665C13.32 8.535 13.095 9.225 12.915 9.735L9.27 19.455H19.44ZM41.4551 30.8711C41.2207 31.2357 40.9342 31.5677 40.5957 31.8672C40.2572 32.1536 39.8861 32.401 39.4824 32.6094C39.0788 32.8177 38.6556 32.9805 38.2129 33.0977C37.7702 33.2148 37.334 33.2734 36.9043 33.2734C36.3314 33.2734 35.8366 33.1693 35.4199 32.9609C35.0163 32.7396 34.6842 32.4531 34.4238 32.1016C34.1634 31.75 33.9681 31.3398 33.8379 30.8711C33.7207 30.4023 33.6621 29.9141 33.6621 29.4062C33.6621 28.7422 33.7598 28.0326 33.9551 27.2773C34.1634 26.5091 34.4368 25.7539 34.7754 25.0117C35.127 24.2695 35.5241 23.5794 35.9668 22.9414C36.4095 22.3034 36.8783 21.776 37.373 21.3594C36.9173 21.6589 36.416 21.8932 35.8691 22.0625C35.3353 22.2318 34.7884 22.3164 34.2285 22.3164C33.8249 22.3164 33.4733 22.2839 33.1738 22.2188C32.8743 22.1536 32.5423 22.0299 32.1777 21.8477L30.1465 26.0859L29.3066 25.7539L31.416 21.4375C31.1947 21.2812 30.9538 21.0859 30.6934 20.8516C30.446 20.6042 30.2637 20.3633 30.1465 20.1289L32.8613 17.082C32.9785 17.4336 33.1413 17.7917 33.3496 18.1562C33.5579 18.5078 33.7988 18.8268 34.0723 19.1133C34.3587 19.3867 34.6712 19.6146 35.0098 19.7969C35.3613 19.9792 35.7389 20.0703 36.1426 20.0703C36.8327 20.0703 37.5033 19.9466 38.1543 19.6992C38.8053 19.4388 39.4108 19.1263 39.9707 18.7617L40.498 19.2891C40.0033 19.7448 39.502 20.2526 38.9941 20.8125C38.4993 21.3594 38.0501 21.9453 37.6465 22.5703C37.2428 23.1953 36.9173 23.8529 36.6699 24.543C36.4225 25.2331 36.2988 25.9297 36.2988 26.6328C36.2988 27.0365 36.3509 27.4922 36.4551 28C36.5723 28.4948 36.748 28.9701 36.9824 29.4258C37.2168 29.8685 37.5098 30.2461 37.8613 30.5586C38.2129 30.8581 38.6361 31.0078 39.1309 31.0078C39.4694 31.0078 39.7949 30.9492 40.1074 30.832C40.4329 30.7018 40.7259 30.5456 40.9863 30.3633L41.4551 30.8711ZM51.3379 30.7148C51.0384 31.3529 50.6934 31.8411 50.3027 32.1797C49.9121 32.5182 49.528 32.7656 49.1504 32.9219C48.7207 33.1042 48.278 33.2083 47.8223 33.2344C47.2363 33.2344 46.7546 33.1432 46.377 32.9609C46.0124 32.7786 45.7194 32.5378 45.498 32.2383C45.2897 31.9388 45.14 31.6003 45.0488 31.2227C44.9707 30.8451 44.9316 30.4609 44.9316 30.0703V19.8359H42.8613L43.7012 17.8828H44.9316V10.9688L48.5059 9.71875V17.8828H52.2168L51.416 19.8359H48.5059V30.168C48.5059 30.4805 48.5775 30.7279 48.7207 30.9102C48.8639 31.0924 49.0462 31.1901 49.2676 31.2031C49.4889 31.2031 49.7363 31.1185 50.0098 30.9492C50.2832 30.7799 50.5501 30.5065 50.8105 30.1289L51.3379 30.7148ZM80.6836 12.5215C80.6836 14.3818 80.332 16.1836 79.6289 17.9268C78.9404 19.6553 78.0029 21.2812 76.8164 22.8047C75.6299 24.3281 74.2456 25.7271 72.6636 27.0015C71.0962 28.2759 69.4336 29.3818 67.6758 30.3193C65.918 31.2568 64.1162 32.0039 62.2705 32.5605C60.4248 33.1172 58.645 33.4468 56.9312 33.5493V8.91797L61.4575 7.31396V31.2422C63.5229 30.6416 65.4126 29.7773 67.1265 28.6494C68.855 27.5068 70.3418 26.1592 71.5869 24.6064C72.832 23.0537 73.7988 21.3179 74.4873 19.3989C75.1904 17.48 75.542 15.4292 75.542 13.2466C75.542 12.0015 75.3809 10.8149 75.0586 9.68701C74.751 8.54443 74.2676 7.54834 73.6084 6.69873C72.9639 5.83447 72.1436 5.15332 71.1475 4.65527C70.1514 4.14258 68.9648 3.88623 67.5879 3.88623C66.46 3.88623 65.3247 4.01074 64.1821 4.25977C63.0542 4.50879 61.9482 4.86035 60.8643 5.31445C59.7949 5.75391 58.7622 6.28125 57.7661 6.89648C56.7847 7.51172 55.8765 8.18555 55.0415 8.91797L54.3604 8.1709C55.2393 7.21875 56.2793 6.3252 57.4805 5.49023C58.6816 4.64062 59.9634 3.90088 61.3257 3.271C62.688 2.62646 64.0869 2.12109 65.5225 1.75488C66.958 1.37402 68.3496 1.18359 69.6973 1.18359C71.5137 1.18359 73.1104 1.45459 74.4873 1.99658C75.8643 2.53857 77.0068 3.30762 77.915 4.30371C78.8379 5.2998 79.5264 6.49365 79.9805 7.88525C80.4492 9.27686 80.6836 10.8223 80.6836 12.5215Z" fill="black"/>
</svg>
